<svg width="289" height="110" viewBox="0 0 289 110" fill="none" xmlns="http://www.w3.org/2000/svg">
<g filter="url(#filter0_d_3905_15)">
<path d="M68.512 56.72V72.656C68.512 74.48 65.824 74.48 65.728 72.656C65.728 69.2 60.928 67.472 56.704 69.776C51.904 73.232 45.568 75.152 38.656 75.152C19.456 75.152 3.99999 59.6 3.99999 40.496C3.99999 21.296 19.456 5.744 38.656 5.744C49.792 5.744 62.752 10.736 66.88 19.088C71.488 28.688 55.456 33.776 54.208 21.968C53.44 14.96 49.312 8.62399 38.656 8.62399C20.8 8.62399 16.864 25.616 16.864 40.496C16.864 55.376 20.8 72.272 38.656 72.272C53.536 72.272 58.048 53.264 52.576 53.264H50.464C49.984 53.264 49.408 53.072 49.12 52.592C48.832 52.112 48.832 51.536 49.12 51.056C49.408 50.576 49.984 50.288 50.464 50.384H59.584C63.808 50.384 68.512 52.4 68.512 56.72ZM77.9897 24.176C77.9897 19.568 77.5097 12.56 73.8617 12.464C71.7497 12.464 71.7497 9.584 73.8617 9.68C78.7577 9.68 88.3577 9.96799 88.3577 6.8C88.3577 4.976 91.0457 5.07199 91.0457 6.89599L90.7577 59.6C90.7577 64.208 91.3337 71.216 94.8857 71.216C96.9977 71.216 96.9977 74.096 94.8857 74.096C87.8777 74.096 80.7737 74.096 73.6697 74.096C71.5577 74.096 71.5577 71.216 73.6697 71.216C76.6457 71.216 77.5097 66.608 77.7977 62.384L77.9897 24.176ZM120.305 30.608C149.585 30.608 149.585 75.248 120.305 75.248C90.9295 75.248 90.9295 30.608 120.305 30.608ZM120.305 33.488C106.961 33.488 106.961 72.368 120.305 72.368C133.649 72.368 133.649 33.488 120.305 33.488ZM164.341 45.296L171.445 60.08C173.557 55.28 175.669 50.48 177.781 45.68C177.397 44.816 177.013 44.048 176.629 43.28C174.613 39.152 172.117 34.64 169.045 34.64C166.933 34.64 166.933 31.76 169.045 31.76C176.341 31.76 183.733 31.76 191.029 31.76C193.141 31.76 193.141 34.64 191.029 34.64C190.837 34.64 190.645 34.64 190.453 34.64C187.477 35.312 188.821 41.744 190.549 45.392L197.557 60.08L206.773 39.248C209.749 32.528 215.989 15.152 224.917 14.96C225.013 14.96 225.109 14.96 225.205 14.96C229.045 14.96 232.213 18.032 232.213 21.872C232.213 25.808 229.045 28.88 225.205 28.88C221.653 28.88 218.677 26.192 218.293 22.736C214.165 28.304 210.709 36.848 209.173 40.208L194.197 74H191.317L179.221 48.752L168.085 74H165.205C160.309 63.824 155.413 53.552 150.517 43.28C148.501 39.152 146.005 34.64 142.933 34.64C140.821 34.64 140.821 31.76 142.933 31.76H164.821C166.933 31.76 166.933 34.64 164.821 34.64C161.173 34.64 162.517 41.456 164.341 45.296ZM218.773 49.04C218.773 44.432 218.293 37.424 214.645 37.328C212.533 37.328 212.533 34.448 214.741 34.544C219.541 34.544 229.141 35.024 229.045 31.952C228.949 30.224 231.829 30.224 231.829 31.952L231.541 59.792C231.637 64.4 232.213 71.216 235.765 71.216C237.877 71.216 237.877 74 235.765 74C228.757 74 221.653 74 214.453 74C212.341 74 212.341 71.216 214.453 71.216C217.909 71.216 218.581 65.072 218.677 60.56L218.773 49.04ZM261.118 30.608C266.686 30.608 272.83 31.952 276.19 36.56C280.51 42.416 271.39 46.064 269.47 38.768C268.51 35.504 265.63 31.664 260.35 33.008C253.246 34.736 250.462 43.184 250.654 51.824C251.134 80.432 272.83 72.848 276.862 65.936C277.63 64.88 279.262 65.936 278.59 66.992C266.878 82.64 239.038 75.632 239.134 52.88C239.134 41.744 246.43 30.608 261.118 30.608Z" fill="#DA627D"/>
</g>
<g filter="url(#filter1_d_3905_15)">
<path d="M212.392 96.336C212.248 96.336 212.136 96.288 212.056 96.192C211.976 96.096 211.936 95.984 211.936 95.856V81.84C211.936 81.552 211.92 81.288 211.888 81.048C211.872 80.792 211.784 80.592 211.624 80.448C211.464 80.288 211.16 80.208 210.712 80.208C210.568 80.208 210.432 80.192 210.304 80.16C210.192 80.112 210.136 79.968 210.136 79.728C210.136 79.488 210.264 79.344 210.52 79.296C211.256 79.184 211.816 79.072 212.2 78.96C212.6 78.848 212.904 78.752 213.112 78.672C213.32 78.592 213.504 78.544 213.664 78.528C213.792 78.512 213.896 78.536 213.976 78.6C214.072 78.664 214.12 78.792 214.12 78.984V86.232H214.192C214.672 85.752 215.208 85.4 215.8 85.176C216.392 84.952 216.96 84.84 217.504 84.84C218.448 84.84 219.296 85.08 220.048 85.56C220.816 86.04 221.424 86.704 221.872 87.552C222.32 88.384 222.544 89.36 222.544 90.48C222.544 91.568 222.288 92.552 221.776 93.432C221.264 94.312 220.592 95.008 219.76 95.52C218.928 96.032 218.024 96.288 217.048 96.288C215.624 96.288 214.392 95.896 213.352 95.112H213.232C213.12 95.352 213.008 95.616 212.896 95.904C212.8 96.192 212.632 96.336 212.392 96.336ZM216.832 95.472C217.792 95.472 218.576 95.032 219.184 94.152C219.792 93.272 220.096 92.08 220.096 90.576C220.096 89.824 219.976 89.104 219.736 88.416C219.512 87.728 219.144 87.16 218.632 86.712C218.136 86.264 217.48 86.04 216.664 86.04C216.12 86.04 215.64 86.136 215.224 86.328C214.808 86.52 214.44 86.792 214.12 87.144V93.48C214.168 93.704 214.296 93.976 214.504 94.296C214.728 94.6 215.032 94.872 215.416 95.112C215.8 95.352 216.272 95.472 216.832 95.472ZM230.117 96.288C228.885 96.288 227.845 96.024 226.997 95.496C226.165 94.968 225.541 94.264 225.125 93.384C224.709 92.504 224.501 91.544 224.501 90.504C224.501 89.8 224.621 89.12 224.861 88.464C225.117 87.792 225.477 87.184 225.941 86.64C226.405 86.08 226.965 85.64 227.621 85.32C228.277 85 229.021 84.84 229.853 84.84C231.325 84.84 232.429 85.224 233.165 85.992C233.917 86.744 234.349 87.704 234.461 88.872C234.461 89.432 234.301 89.8 233.981 89.976C233.677 90.152 233.277 90.24 232.781 90.24H226.949C226.949 91.168 227.077 92 227.333 92.736C227.589 93.456 227.989 94.032 228.533 94.464C229.093 94.88 229.829 95.088 230.741 95.088C231.413 95.088 231.989 94.944 232.469 94.656C232.949 94.368 233.413 93.864 233.861 93.144C233.989 92.984 234.165 92.976 234.389 93.12C234.517 93.184 234.597 93.288 234.629 93.432C234.661 93.56 234.645 93.672 234.581 93.768C234.085 94.552 233.461 95.168 232.709 95.616C231.957 96.064 231.093 96.288 230.117 96.288ZM226.949 89.328H230.861C231.245 89.328 231.549 89.256 231.773 89.112C232.013 88.952 232.141 88.688 232.157 88.32C232.157 87.632 231.965 87.024 231.581 86.496C231.213 85.952 230.637 85.68 229.853 85.68C229.053 85.68 228.381 86 227.837 86.64C227.309 87.28 227.013 88.176 226.949 89.328ZM239.596 96.288C238.62 96.288 237.836 96.008 237.244 95.448C236.668 94.888 236.38 94.216 236.38 93.432C236.38 92.616 236.588 91.976 237.004 91.512C237.436 91.048 237.996 90.704 238.684 90.48C239.388 90.256 240.148 90.104 240.964 90.024C241.796 89.944 242.604 89.88 243.388 89.832V87.936C243.388 87.184 243.196 86.6 242.812 86.184C242.444 85.752 241.812 85.536 240.916 85.536C240.468 85.536 240.044 85.68 239.644 85.968C239.26 86.256 239.068 86.672 239.068 87.216C239.068 87.472 239.132 87.688 239.26 87.864C239.388 88.04 239.516 88.176 239.644 88.272C239.772 88.368 239.836 88.432 239.836 88.464C239.836 88.528 239.74 88.648 239.548 88.824C239.372 88.984 239.124 89.064 238.804 89.064C238.308 89.064 237.924 88.88 237.652 88.512C237.38 88.144 237.244 87.736 237.244 87.288C237.244 86.68 237.428 86.2 237.796 85.848C238.18 85.496 238.668 85.24 239.26 85.08C239.852 84.92 240.452 84.84 241.06 84.84C241.78 84.84 242.476 84.928 243.148 85.104C243.836 85.28 244.396 85.616 244.828 86.112C245.276 86.608 245.5 87.352 245.5 88.344V93.936C245.516 94.096 245.556 94.288 245.62 94.512C245.684 94.736 245.804 94.936 245.98 95.112C246.172 95.272 246.428 95.352 246.748 95.352C246.86 95.352 246.948 95.376 247.012 95.424C247.076 95.456 247.108 95.56 247.108 95.736C247.108 95.88 247.028 95.992 246.868 96.072C246.708 96.152 246.524 96.208 246.316 96.24C246.108 96.272 245.932 96.288 245.788 96.288C245.196 96.288 244.668 96.12 244.204 95.784C243.74 95.432 243.468 94.952 243.388 94.344C243.036 94.984 242.508 95.472 241.804 95.808C241.116 96.128 240.38 96.288 239.596 96.288ZM240.364 94.992C240.908 94.992 241.404 94.856 241.852 94.584C242.316 94.312 242.684 93.944 242.956 93.48C243.244 93 243.388 92.472 243.388 91.896V90.528C241.74 90.64 240.564 90.904 239.86 91.32C239.156 91.736 238.804 92.416 238.804 93.36C238.804 94.448 239.324 94.992 240.364 94.992ZM253.207 96.288C252.119 96.288 251.255 95.96 250.615 95.304C249.975 94.648 249.655 93.784 249.655 92.712V88.272C249.655 87.984 249.639 87.72 249.607 87.48C249.591 87.224 249.503 87.024 249.343 86.88C249.183 86.72 248.879 86.64 248.431 86.64C248.287 86.64 248.151 86.624 248.023 86.592C247.911 86.544 247.855 86.4 247.855 86.16C247.855 85.92 247.983 85.776 248.239 85.728C248.975 85.616 249.535 85.504 249.919 85.392C250.319 85.28 250.623 85.184 250.831 85.104C251.039 85.024 251.223 84.976 251.383 84.96C251.511 84.944 251.615 84.968 251.695 85.032C251.791 85.096 251.839 85.224 251.839 85.416V92.688C251.839 93.216 251.951 93.648 252.175 93.984C252.415 94.32 252.711 94.568 253.063 94.728C253.415 94.888 253.775 94.968 254.143 94.968C254.703 94.968 255.191 94.872 255.607 94.68C256.023 94.472 256.359 94.24 256.615 93.984C256.871 93.712 257.039 93.488 257.119 93.312V88.272C257.119 87.984 257.103 87.72 257.071 87.48C257.055 87.224 256.967 87.024 256.807 86.88C256.647 86.72 256.343 86.64 255.895 86.64C255.751 86.64 255.615 86.624 255.487 86.592C255.375 86.544 255.319 86.4 255.319 86.16C255.319 85.92 255.447 85.776 255.703 85.728C256.439 85.616 256.999 85.504 257.383 85.392C257.783 85.28 258.087 85.184 258.295 85.104C258.503 85.024 258.687 84.976 258.847 84.96C258.975 84.944 259.079 84.968 259.159 85.032C259.255 85.096 259.303 85.224 259.303 85.416V93.72C259.303 94.664 259.935 95.136 261.199 95.136C261.375 95.136 261.487 95.184 261.535 95.28C261.583 95.376 261.607 95.48 261.607 95.592C261.607 95.816 261.471 95.952 261.199 96L257.335 96.264C257.223 96.264 257.159 96.216 257.143 96.12C257.127 96.024 257.119 95.912 257.119 95.784V94.44H257.071C256.767 94.728 256.439 95.016 256.087 95.304C255.751 95.592 255.351 95.824 254.887 96C254.439 96.192 253.879 96.288 253.207 96.288ZM266.928 96.408C266.448 96.408 265.992 96.288 265.56 96.048C265.128 95.808 264.768 95.44 264.48 94.944C264.208 94.448 264.072 93.824 264.072 93.072V86.016L262.68 86.064C262.568 86.064 262.48 86.024 262.416 85.944C262.368 85.848 262.344 85.744 262.344 85.632C262.344 85.312 262.456 85.128 262.68 85.08C263.272 84.968 263.72 84.784 264.024 84.528C264.328 84.256 264.56 83.936 264.72 83.568C264.896 83.2 265.056 82.8 265.2 82.368C265.248 82.24 265.32 82.16 265.416 82.128C265.512 82.08 265.616 82.056 265.728 82.056C265.824 82.056 265.928 82.08 266.04 82.128C266.168 82.176 266.232 82.264 266.232 82.392L266.064 85.128L268.872 84.96C269.016 84.944 269.112 84.984 269.16 85.08C269.208 85.176 269.232 85.288 269.232 85.416C269.232 85.576 269.2 85.736 269.136 85.896C269.088 86.056 269.024 86.136 268.944 86.136L266.256 86.064V93.36C266.256 93.824 266.352 94.248 266.544 94.632C266.752 95.016 267.12 95.208 267.648 95.208C267.824 95.208 268.024 95.192 268.248 95.16C268.472 95.128 268.712 95.056 268.968 94.944C269.032 94.912 269.096 94.888 269.16 94.872C269.224 94.84 269.288 94.824 269.352 94.824C269.48 94.824 269.576 94.88 269.64 94.992C269.704 95.088 269.76 95.192 269.808 95.304C269.856 95.448 269.816 95.56 269.688 95.64C269.192 95.96 268.736 96.168 268.32 96.264C267.904 96.36 267.44 96.408 266.928 96.408ZM273.142 101.232C272.678 101.232 272.238 101.128 271.822 100.92C271.422 100.712 271.102 100.432 270.862 100.08C270.622 99.744 270.502 99.376 270.502 98.976C270.518 98.544 270.614 98.208 270.79 97.968C270.95 97.744 271.134 97.584 271.342 97.488C271.55 97.408 271.726 97.36 271.87 97.344C272.014 97.328 272.07 97.32 272.038 97.32C272.342 97.32 272.574 97.376 272.734 97.488C272.894 97.616 272.974 97.72 272.974 97.8C272.974 97.832 272.91 97.904 272.782 98.016C272.67 98.144 272.606 98.36 272.59 98.664C272.574 98.952 272.662 99.232 272.854 99.504C273.046 99.776 273.342 99.912 273.742 99.912C274.19 99.912 274.598 99.744 274.966 99.408C275.334 99.088 275.662 98.688 275.95 98.208C276.238 97.728 276.486 97.264 276.694 96.816C276.806 96.464 276.798 96.096 276.67 95.712C276.286 94.848 275.91 93.928 275.542 92.952C275.174 91.976 274.814 91.032 274.462 90.12C274.126 89.208 273.79 88.408 273.454 87.72C273.198 87.128 272.95 86.712 272.71 86.472C272.47 86.216 272.11 86.056 271.63 85.992C271.422 85.96 271.278 85.928 271.198 85.896C271.134 85.864 271.094 85.744 271.078 85.536C271.062 85.264 271.134 85.12 271.294 85.104C271.47 85.072 271.678 85.048 271.918 85.032C272.91 84.984 273.686 85.128 274.246 85.464C274.806 85.8 275.262 86.368 275.614 87.168C275.838 87.664 276.086 88.28 276.358 89.016C276.63 89.752 276.918 90.496 277.222 91.248C277.526 92 277.822 92.68 278.11 93.288H278.182L280.534 87C280.694 86.536 280.702 86.248 280.558 86.136C280.414 86.024 280.102 85.968 279.622 85.968C279.478 85.968 279.358 85.96 279.262 85.944C279.166 85.912 279.11 85.776 279.094 85.536C279.094 85.44 279.118 85.336 279.166 85.224C279.23 85.112 279.318 85.056 279.43 85.056C279.894 85.072 280.294 85.088 280.63 85.104C280.966 85.12 281.342 85.128 281.758 85.128C282.046 85.128 282.278 85.128 282.454 85.128C282.63 85.112 282.814 85.104 283.006 85.104C283.198 85.088 283.446 85.072 283.75 85.056C283.878 85.056 283.966 85.112 284.014 85.224C284.078 85.336 284.11 85.44 284.11 85.536C284.094 85.776 284.03 85.912 283.918 85.944C283.822 85.96 283.71 85.968 283.582 85.968C283.054 85.968 282.63 86.064 282.31 86.256C282.006 86.448 281.742 86.824 281.518 87.384C281.518 87.384 281.43 87.592 281.254 88.008C281.094 88.424 280.878 88.968 280.606 89.64C280.334 90.312 280.046 91.024 279.742 91.776C279.438 92.512 279.15 93.216 278.878 93.888C278.606 94.56 278.382 95.112 278.206 95.544C278.03 95.976 277.934 96.208 277.918 96.24C277.71 96.736 277.454 97.272 277.15 97.848C276.862 98.44 276.518 98.984 276.118 99.48C275.734 99.992 275.294 100.408 274.798 100.728C274.302 101.064 273.75 101.232 273.142 101.232Z" fill="#DA627D"/>
</g>
<defs>
<filter id="filter0_d_3905_15" x="0" y="4.976" width="284.51" height="85.664" filterUnits="userSpaceOnUse" color-interpolation-filters="sRGB">
<feFlood flood-opacity="0" result="BackgroundImageFix"/>
<feColorMatrix in="SourceAlpha" type="matrix" values="0 0 0 0 0 0 0 0 0 0 0 0 0 0 0 0 0 0 127 0" result="hardAlpha"/>
<feOffset dy="4"/>
<feGaussianBlur stdDeviation="2"/>
<feComposite in2="hardAlpha" operator="out"/>
<feColorMatrix type="matrix" values="0 0 0 0 0.270588 0 0 0 0 0.0352941 0 0 0 0 0.12549 0 0 0 0.25 0"/>
<feBlend mode="normal" in2="BackgroundImageFix" result="effect1_dropShadow_3905_15"/>
<feBlend mode="normal" in="SourceGraphic" in2="effect1_dropShadow_3905_15" result="shape"/>
</filter>
<filter id="filter1_d_3905_15" x="206.136" y="78.504" width="81.9734" height="30.728" filterUnits="userSpaceOnUse" color-interpolation-filters="sRGB">
<feFlood flood-opacity="0" result="BackgroundImageFix"/>
<feColorMatrix in="SourceAlpha" type="matrix" values="0 0 0 0 0 0 0 0 0 0 0 0 0 0 0 0 0 0 127 0" result="hardAlpha"/>
<feOffset dy="4"/>
<feGaussianBlur stdDeviation="2"/>
<feComposite in2="hardAlpha" operator="out"/>
<feColorMatrix type="matrix" values="0 0 0 0 0.270588 0 0 0 0 0.0352941 0 0 0 0 0.12549 0 0 0 0.25 0"/>
<feBlend mode="normal" in2="BackgroundImageFix" result="effect1_dropShadow_3905_15"/>
<feBlend mode="normal" in="SourceGraphic" in2="effect1_dropShadow_3905_15" result="shape"/>
</filter>
</defs>
</svg>
